<svg width="1600" height="1200" viewBox="0 0 1600 1200" fill="none" xmlns="http://www.w3.org/2000/svg">
  <rect width="1600" height="1200" fill="#0F172A"/>
  <rect width="1600" height="1200" fill="url(#paint0_linear_1_1)"/>
  <circle cx="1224" cy="228" r="132" fill="#C9A227" fill-opacity="0.22"/>
  <path d="M0 842L208 684L462 760L686 580L936 660L1210 472L1600 690V1200H0V842Z" fill="#F8FAFC" fill-opacity="0.09"/>
  <rect x="220" y="348" width="142" height="520" rx="16" fill="#1E293B"/>
  <rect x="392" y="236" width="184" height="632" rx="20" fill="#334155"/>
  <rect x="608" y="300" width="128" height="568" rx="18" fill="#1E293B"/>
  <rect x="768" y="178" width="180" height="690" rx="22" fill="#475569"/>
  <rect x="986" y="278" width="146" height="590" rx="20" fill="#1E293B"/>
  <rect x="1168" y="384" width="206" height="484" rx="18" fill="#334155"/>
  <g opacity="0.7">
    <rect x="258" y="410" width="22" height="26" rx="4" fill="#F8FAFC"/>
    <rect x="258" y="462" width="22" height="26" rx="4" fill="#F8FAFC"/>
    <rect x="258" y="514" width="22" height="26" rx="4" fill="#F8FAFC"/>
    <rect x="436" y="302" width="24" height="28" rx="4" fill="#F8FAFC"/>
    <rect x="476" y="302" width="24" height="28" rx="4" fill="#F8FAFC"/>
    <rect x="436" y="358" width="24" height="28" rx="4" fill="#F8FAFC"/>
    <rect x="808" y="250" width="28" height="30" rx="5" fill="#F8FAFC"/>
    <rect x="858" y="250" width="28" height="30" rx="5" fill="#F8FAFC"/>
    <rect x="808" y="312" width="28" height="30" rx="5" fill="#F8FAFC"/>
    <rect x="858" y="312" width="28" height="30" rx="5" fill="#F8FAFC"/>
    <rect x="1024" y="340" width="22" height="26" rx="4" fill="#F8FAFC"/>
    <rect x="1060" y="340" width="22" height="26" rx="4" fill="#F8FAFC"/>
  </g>
  <defs>
    <linearGradient id="paint0_linear_1_1" x1="800" y1="0" x2="800" y2="1200" gradientUnits="userSpaceOnUse">
      <stop stop-color="#1E293B"/>
      <stop offset="1" stop-color="#0F172A"/>
    </linearGradient>
  </defs>
</svg>
