<svg viewBox="0 0 1600 900" xmlns="http://www.w3.org/2000/svg">

<rect width="1600" height="900" fill="#0F172A"/>

<g stroke="#C9A227" stroke-opacity="0.08" stroke-width="1">

<line x1="0" y1="700" x2="1600" y2="700"/>

<rect x="180" y="520" width="120" height="180"/>
<rect x="360" y="560" width="80" height="140"/>
<rect x="520" y="500" width="160" height="200"/>
<rect x="750" y="540" width="110" height="160"/>
<rect x="920" y="480" width="180" height="220"/>
<rect x="1150" y="520" width="140" height="180"/>

</g>

<g stroke="#C9A227" stroke-opacity="0.15" stroke-width="1.5">

<line x1="240" y1="520" x2="440" y2="560"/>
<line x1="440" y1="560" x2="600" y2="500"/>
<line x1="600" y1="500" x2="800" y2="540"/>
<line x1="800" y1="540" x2="1010" y2="480"/>
<line x1="1010" y1="480" x2="1220" y2="520"/>

</g>

<g fill="#C9A227" fill-opacity="0.35">

<circle cx="240" cy="520" r="3"/>
<circle cx="440" cy="560" r="3"/>
<circle cx="600" cy="500" r="3"/>
<circle cx="800" cy="540" r="3"/>
<circle cx="1010" cy="480" r="3"/>
<circle cx="1220" cy="520" r="3"/>

</g>

</svg>